<?xml version="1.0" encoding="UTF-8"?>
<!DOCTYPE svg PUBLIC "-//W3C//DTD SVG 1.1//EN" "http://www.w3.org/Graphics/SVG/1.1/DTD/svg11.dtd">
<svg xmlns="http://www.w3.org/2000/svg" version="1.1" width="1000px" height="1000px" style="shape-rendering:geometricPrecision; text-rendering:geometricPrecision; image-rendering:optimizeQuality; fill-rule:evenodd; clip-rule:evenodd" xmlns:xlink="http://www.w3.org/1999/xlink">
<g><path style="opacity:1" fill="#fefefd" d="M -0.5,-0.5 C 332.833,-0.5 666.167,-0.5 999.5,-0.5C 999.5,332.833 999.5,666.167 999.5,999.5C 666.167,999.5 332.833,999.5 -0.5,999.5C -0.5,666.167 -0.5,332.833 -0.5,-0.5 Z"/></g>
<g><path style="opacity:1" fill="#6adaf2" d="M 488.5,417.5 C 485.92,423.668 482.586,429.335 478.5,434.5C 477.24,434.201 476.073,434.201 475,434.5C 473.621,431.574 472.121,428.74 470.5,426C 471.166,424.331 471.166,422.831 470.5,421.5C 469.054,422.171 468.388,423.338 468.5,425C 468.558,427.528 469.558,429.528 471.5,431C 469.865,431.54 468.532,431.04 467.5,429.5C 466.808,430.025 466.308,430.692 466,431.5C 465.607,429.801 466.107,428.301 467.5,427C 467.37,425.941 466.87,425.108 466,424.5C 463.937,429.533 461.937,434.533 460,439.5C 459.667,438.5 459.333,437.5 459,436.5C 458.292,437.381 457.458,438.047 456.5,438.5C 461.081,428.997 466.414,419.997 472.5,411.5C 472.706,413.549 473.539,413.883 475,412.5C 477.604,406.271 480.938,400.605 485,395.5C 486.504,397.099 486.67,398.932 485.5,401C 484.487,403.024 483.154,404.857 481.5,406.5C 482.325,407.386 483.325,407.719 484.5,407.5C 484.5,409.5 484.5,411.5 484.5,413.5C 486.124,413.64 487.29,412.973 488,411.5C 488.495,413.473 488.662,415.473 488.5,417.5 Z"/></g>
<g><path style="opacity:1" fill="#57cdee" d="M 449.5,447.5 C 450.919,448.451 452.585,448.784 454.5,448.5C 454.112,450.685 453.112,452.518 451.5,454C 451.833,454.5 452.167,455 452.5,455.5C 454.722,451.288 455.889,451.621 456,456.5C 456.654,455.304 457.154,455.304 457.5,456.5C 456.534,459.157 456.034,461.824 456,464.5C 456.915,463.672 457.581,462.672 458,461.5C 458.377,462.942 459.21,463.942 460.5,464.5C 461.287,467.408 462.62,470.074 464.5,472.5C 464.439,474.439 464.439,476.439 464.5,478.5C 460.108,471.993 458.608,472.993 460,481.5C 461.836,483.07 461.67,484.57 459.5,486C 460.022,486.95 460.689,487.784 461.5,488.5C 460.083,491.092 459.083,493.759 458.5,496.5C 447.359,478.23 436.192,459.897 425,441.5C 421.228,446.727 417.728,452.061 414.5,457.5C 414.565,457.062 414.399,456.728 414,456.5C 412.375,460.047 410.542,459.88 408.5,456C 411.279,455.851 411.779,455.017 410,453.5C 409.586,453.957 409.086,454.291 408.5,454.5C 408.031,450.965 406.531,447.965 404,445.5C 402.812,446.563 402.312,447.897 402.5,449.5C 403.5,449.5 404.5,449.5 405.5,449.5C 405.067,452.285 403.734,454.619 401.5,456.5C 402.872,458.62 402.205,459.62 399.5,459.5C 399.657,458.127 399.49,456.793 399,455.5C 397.414,457.67 396.08,460.004 395,462.5C 394.768,461.263 394.268,460.263 393.5,459.5C 400.411,446.739 407.577,434.073 415,421.5C 420.435,412.946 426.769,412.28 434,419.5C 438.925,429.021 444.092,438.355 449.5,447.5 Z"/></g>
<g><path style="opacity:1" fill="#60d2f0" d="M 478.5,434.5 C 473.477,445.235 467.477,455.235 460.5,464.5C 459.21,463.942 458.377,462.942 458,461.5C 457.581,462.672 456.915,463.672 456,464.5C 456.034,461.824 456.534,459.157 457.5,456.5C 457.154,455.304 456.654,455.304 456,456.5C 455.889,451.621 454.722,451.288 452.5,455.5C 452.167,455 451.833,454.5 451.5,454C 453.112,452.518 454.112,450.685 454.5,448.5C 452.585,448.784 450.919,448.451 449.5,447.5C 452.055,444.75 454.388,441.75 456.5,438.5C 457.458,438.047 458.292,437.381 459,436.5C 459.333,437.5 459.667,438.5 460,439.5C 461.937,434.533 463.937,429.533 466,424.5C 466.87,425.108 467.37,425.941 467.5,427C 466.107,428.301 465.607,429.801 466,431.5C 466.308,430.692 466.808,430.025 467.5,429.5C 468.532,431.04 469.865,431.54 471.5,431C 469.558,429.528 468.558,427.528 468.5,425C 468.388,423.338 469.054,422.171 470.5,421.5C 471.166,422.831 471.166,424.331 470.5,426C 472.121,428.74 473.621,431.574 475,434.5C 476.073,434.201 477.24,434.201 478.5,434.5 Z"/></g>
<g><path style="opacity:1" fill="#fafbfa" d="M 587.5,486.5 C 594.747,500.667 602.747,514.334 611.5,527.5C 606.881,528.828 601.881,529.494 596.5,529.5C 591.5,529.333 586.5,529.167 581.5,529C 569.852,508.191 557.852,487.691 545.5,467.5C 548.689,460.294 552.356,453.294 556.5,446.5C 557.237,444.695 558.237,443.029 559.5,441.5C 560.086,441.709 560.586,442.043 561,442.5C 569.594,457.364 578.428,472.03 587.5,486.5 Z"/></g>
<g><path style="opacity:1" fill="#70e1f4" d="M 536.5,446.5 C 537.825,445.047 538.658,445.381 539,447.5C 541.001,444.156 543.001,440.823 545,437.5C 545.414,437.957 545.914,438.291 546.5,438.5C 546.887,436.269 547.053,433.936 547,431.5C 548.117,432.949 548.784,434.616 549,436.5C 550.185,434.441 551.352,434.274 552.5,436C 553.615,437.235 553.615,438.402 552.5,439.5C 555.167,440.833 555.167,442.167 552.5,443.5C 553.467,444.984 554.8,445.984 556.5,446.5C 552.356,453.294 548.689,460.294 545.5,467.5C 544.778,467.082 544.278,466.416 544,465.5C 542.104,466.68 540.604,468.18 539.5,470C 539.86,471.652 540.193,473.318 540.5,475C 539.76,476.785 539.093,478.618 538.5,480.5C 539.883,483.076 540.717,482.742 541,479.5C 541.402,480.872 541.902,482.205 542.5,483.5C 538.79,484.988 536.623,483.655 536,479.5C 535.333,482.167 534.667,482.167 534,479.5C 533.617,480.056 533.117,480.389 532.5,480.5C 519.463,457.556 505.963,434.89 492,412.5C 490.811,414.233 489.644,415.9 488.5,417.5C 488.662,415.473 488.495,413.473 488,411.5C 487.29,412.973 486.124,413.64 484.5,413.5C 484.5,411.5 484.5,409.5 484.5,407.5C 483.325,407.719 482.325,407.386 481.5,406.5C 483.154,404.857 484.487,403.024 485.5,401C 486.67,398.932 486.504,397.099 485,395.5C 480.938,400.605 477.604,406.271 475,412.5C 473.539,413.883 472.706,413.549 472.5,411.5C 476.847,402.644 481.847,394.144 487.5,386C 490.928,385.299 494.262,385.632 497.5,387C 499.788,389.743 501.955,392.577 504,395.5C 513.396,413.294 523.563,430.627 534.5,447.5C 535.183,447.137 535.85,446.804 536.5,446.5 Z"/></g>
<g><path style="opacity:1" fill="#7cebf7" d="M 599.5,473.5 C 599.119,474.931 598.119,475.764 596.5,476C 597.784,477.297 597.617,478.464 596,479.5C 595.612,478.572 594.945,477.905 594,477.5C 592.829,478.34 591.662,479.173 590.5,480C 590.957,480.414 591.291,480.914 591.5,481.5C 590.811,483.444 590.311,485.444 590,487.5C 589.329,486.748 588.496,486.414 587.5,486.5C 578.428,472.03 569.594,457.364 561,442.5C 560.586,442.043 560.086,441.709 559.5,441.5C 558.237,443.029 557.237,444.695 556.5,446.5C 554.8,445.984 553.467,444.984 552.5,443.5C 555.167,442.167 555.167,440.833 552.5,439.5C 553.615,438.402 553.615,437.235 552.5,436C 551.352,434.274 550.185,434.441 549,436.5C 548.784,434.616 548.117,432.949 547,431.5C 547.053,433.936 546.887,436.269 546.5,438.5C 545.914,438.291 545.414,437.957 545,437.5C 543.001,440.823 541.001,444.156 539,447.5C 538.658,445.381 537.825,445.047 536.5,446.5C 541.341,436.153 546.841,426.153 553,416.5C 557.035,412.781 561.202,412.615 565.5,416C 577.426,434.773 588.76,453.939 599.5,473.5 Z"/></g>
<g><path style="opacity:1" fill="#4dc3ec" d="M 414.5,457.5 C 404.054,476.861 393.054,495.861 381.5,514.5C 379.456,510.35 380.456,507.35 384.5,505.5C 385.123,503.289 386.123,501.289 387.5,499.5C 386.289,498.28 386.289,497.113 387.5,496C 386.833,495.667 386.167,495.333 385.5,495C 387,493.833 388.5,492.667 390,491.5C 390.333,492.5 390.667,493.5 391,494.5C 392.636,491.394 394.136,488.227 395.5,485C 394.268,481.61 393.434,481.777 393,485.5C 392.695,483.443 392.695,481.443 393,479.5C 391.287,481.507 389.621,483.507 388,485.5C 387.517,484.552 387.351,483.552 387.5,482.5C 386.167,482.5 384.833,482.5 383.5,482.5C 383.719,483.675 383.386,484.675 382.5,485.5C 381.274,484.637 379.94,484.637 378.5,485.5C 382.998,476.499 387.998,467.832 393.5,459.5C 394.268,460.263 394.768,461.263 395,462.5C 396.08,460.004 397.414,457.67 399,455.5C 399.49,456.793 399.657,458.127 399.5,459.5C 402.205,459.62 402.872,458.62 401.5,456.5C 403.734,454.619 405.067,452.285 405.5,449.5C 404.5,449.5 403.5,449.5 402.5,449.5C 402.312,447.897 402.812,446.563 404,445.5C 406.531,447.965 408.031,450.965 408.5,454.5C 409.086,454.291 409.586,453.957 410,453.5C 411.779,455.017 411.279,455.851 408.5,456C 410.542,459.88 412.375,460.047 414,456.5C 414.399,456.728 414.565,457.062 414.5,457.5 Z"/></g>
<g><path style="opacity:1" fill="#78e8f6" d="M 599.5,473.5 C 611.072,493.591 622.905,513.591 635,533.5C 637.544,539.741 635.711,544.074 629.5,546.5C 628.833,546.5 628.167,546.5 627.5,546.5C 619.01,545.67 610.343,545.17 601.5,545C 603.577,544.808 605.577,544.308 607.5,543.5C 606.332,542.094 606.665,540.928 608.5,540C 607.833,539.667 607.167,539.333 606.5,539C 607.653,537.117 609.319,536.284 611.5,536.5C 611.349,533.282 610.516,532.949 609,535.5C 605.837,534.006 602.67,532.506 599.5,531C 604.184,530.539 608.851,530.705 613.5,531.5C 613.66,529.801 613.494,528.134 613,526.5C 612.617,527.056 612.117,527.389 611.5,527.5C 602.747,514.334 594.747,500.667 587.5,486.5C 588.496,486.414 589.329,486.748 590,487.5C 590.311,485.444 590.811,483.444 591.5,481.5C 591.291,480.914 590.957,480.414 590.5,480C 591.662,479.173 592.829,478.34 594,477.5C 594.945,477.905 595.612,478.572 596,479.5C 597.617,478.464 597.784,477.297 596.5,476C 598.119,475.764 599.119,474.931 599.5,473.5 Z"/></g>
<g><path style="opacity:1" fill="#fbfcfb" d="M 532.5,480.5 C 547.934,506.525 563.268,532.691 578.5,559C 576.527,559.495 574.527,559.662 572.5,559.5C 517.5,558.833 462.5,558.167 407.5,557.5C 412.087,549.996 416.42,542.329 420.5,534.5C 428.812,521.222 436.645,507.555 444,493.5C 444.757,484.589 440.757,480.922 432,482.5C 430.355,484.145 428.688,485.812 427,487.5C 418.875,501.425 411.042,515.425 403.5,529.5C 402.167,529.5 400.833,529.5 399.5,529.5C 391.167,528.833 382.833,528.167 374.5,527.5C 377.075,523.353 379.409,519.02 381.5,514.5C 393.054,495.861 404.054,476.861 414.5,457.5C 417.728,452.061 421.228,446.727 425,441.5C 436.192,459.897 447.359,478.23 458.5,496.5C 467.513,513.356 477.18,529.856 487.5,546C 490.5,546.667 493.5,546.667 496.5,546C 498.819,544.853 500.152,543.019 500.5,540.5C 509.641,525.564 518.808,510.564 528,495.5C 530.301,489.416 528.468,484.916 522.5,482C 517.537,481.328 513.703,483.161 511,487.5C 505.44,498.039 499.607,508.372 493.5,518.5C 492.923,519.773 492.257,519.773 491.5,518.5C 482.473,503.149 473.473,487.816 464.5,472.5C 462.62,470.074 461.287,467.408 460.5,464.5C 467.477,455.235 473.477,445.235 478.5,434.5C 482.586,429.335 485.92,423.668 488.5,417.5C 489.644,415.9 490.811,414.233 492,412.5C 505.963,434.89 519.463,457.556 532.5,480.5 Z"/></g>
<g><path style="opacity:1" fill="#54cbef" d="M 464.5,472.5 C 473.473,487.816 482.473,503.149 491.5,518.5C 492.257,519.773 492.923,519.773 493.5,518.5C 494.692,519.566 494.359,520.399 492.5,521C 493.624,521.249 494.624,521.749 495.5,522.5C 494.233,524.371 494.233,526.204 495.5,528C 493.231,527.626 490.898,527.626 488.5,528C 489.257,529.512 490.257,530.846 491.5,532C 488.833,533 488.833,534 491.5,535C 490.376,535.839 489.709,537.006 489.5,538.5C 490.112,540.338 490.112,542.005 489.5,543.5C 491.191,545.256 493.191,545.756 495.5,545C 494.5,544.667 493.5,544.333 492.5,544C 493.127,539.676 494.961,539.509 498,543.5C 498.377,542.058 499.21,541.058 500.5,540.5C 500.152,543.019 498.819,544.853 496.5,546C 493.5,546.667 490.5,546.667 487.5,546C 477.18,529.856 467.513,513.356 458.5,496.5C 459.083,493.759 460.083,491.092 461.5,488.5C 460.689,487.784 460.022,486.95 459.5,486C 461.67,484.57 461.836,483.07 460,481.5C 458.608,472.993 460.108,471.993 464.5,478.5C 464.439,476.439 464.439,474.439 464.5,472.5 Z"/></g>
<g><path style="opacity:1" fill="#5bcfef" d="M 500.5,540.5 C 499.21,541.058 498.377,542.058 498,543.5C 494.961,539.509 493.127,539.676 492.5,544C 493.5,544.333 494.5,544.667 495.5,545C 493.191,545.756 491.191,545.256 489.5,543.5C 490.112,542.005 490.112,540.338 489.5,538.5C 489.709,537.006 490.376,535.839 491.5,535C 488.833,534 488.833,533 491.5,532C 490.257,530.846 489.257,529.512 488.5,528C 490.898,527.626 493.231,527.626 495.5,528C 494.233,526.204 494.233,524.371 495.5,522.5C 494.624,521.749 493.624,521.249 492.5,521C 494.359,520.399 494.692,519.566 493.5,518.5C 499.607,508.372 505.44,498.039 511,487.5C 513.703,483.161 517.537,481.328 522.5,482C 528.468,484.916 530.301,489.416 528,495.5C 518.808,510.564 509.641,525.564 500.5,540.5 Z"/></g>
<g><path style="opacity:1" fill="#4dc3eb" d="M 420.5,534.5 C 419.465,532.795 419.465,531.128 420.5,529.5C 418.328,528.795 416.328,527.795 414.5,526.5C 415.326,525.549 415.492,524.549 415,523.5C 413.493,524.505 412.327,525.838 411.5,527.5C 408.751,526.511 406.751,527.511 405.5,530.5C 404.817,530.137 404.15,529.804 403.5,529.5C 411.042,515.425 418.875,501.425 427,487.5C 428.688,485.812 430.355,484.145 432,482.5C 440.757,480.922 444.757,484.589 444,493.5C 436.645,507.555 428.812,521.222 420.5,534.5 Z"/></g>
<g><path style="opacity:1" fill="#6ddbf2" d="M 545.5,467.5 C 557.852,487.691 569.852,508.191 581.5,529C 586.5,529.167 591.5,529.333 596.5,529.5C 601.881,529.494 606.881,528.828 611.5,527.5C 612.117,527.389 612.617,527.056 613,526.5C 613.494,528.134 613.66,529.801 613.5,531.5C 608.851,530.705 604.184,530.539 599.5,531C 602.67,532.506 605.837,534.006 609,535.5C 610.516,532.949 611.349,533.282 611.5,536.5C 609.319,536.284 607.653,537.117 606.5,539C 607.167,539.333 607.833,539.667 608.5,540C 606.665,540.928 606.332,542.094 607.5,543.5C 605.577,544.308 603.577,544.808 601.5,545C 610.343,545.17 619.01,545.67 627.5,546.5C 615.814,546.168 604.148,546.501 592.5,547.5C 592.624,548.107 592.957,548.44 593.5,548.5C 597.232,554.798 600.566,561.298 603.5,568C 602.598,572.568 599.932,575.568 595.5,577C 526.332,577.832 457.332,577.665 388.5,576.5C 424.167,576.5 459.833,576.5 495.5,576.5C 503.5,576.5 511.5,576.5 519.5,576.5C 538.167,576.5 556.833,576.5 575.5,576.5C 575.67,575.178 575.337,574.011 574.5,573C 576.781,571.149 576.781,569.482 574.5,568C 575.672,567.647 576.838,567.813 578,568.5C 578.945,568.095 579.612,567.428 580,566.5C 580.604,568.686 581.77,568.852 583.5,567C 582.241,566.077 580.908,565.243 579.5,564.5C 573.193,563.669 566.859,563.169 560.5,563C 565.47,562.114 570.47,561.448 575.5,561C 561.661,560.831 547.994,560.331 534.5,559.5C 547.167,559.5 559.833,559.5 572.5,559.5C 574.527,559.662 576.527,559.495 578.5,559C 563.268,532.691 547.934,506.525 532.5,480.5C 533.117,480.389 533.617,480.056 534,479.5C 534.667,482.167 535.333,482.167 536,479.5C 536.623,483.655 538.79,484.988 542.5,483.5C 541.902,482.205 541.402,480.872 541,479.5C 540.717,482.742 539.883,483.076 538.5,480.5C 539.093,478.618 539.76,476.785 540.5,475C 540.193,473.318 539.86,471.652 539.5,470C 540.604,468.18 542.104,466.68 544,465.5C 544.278,466.416 544.778,467.082 545.5,467.5 Z"/></g>
<g><path style="opacity:1" fill="#3db9e7" d="M 381.5,514.5 C 379.409,519.02 377.075,523.353 374.5,527.5C 373.957,527.56 373.624,527.893 373.5,528.5C 382.141,529.498 390.808,529.831 399.5,529.5C 400.833,529.5 402.167,529.5 403.5,529.5C 404.15,529.804 404.817,530.137 405.5,530.5C 406.751,527.511 408.751,526.511 411.5,527.5C 412.327,525.838 413.493,524.505 415,523.5C 415.492,524.549 415.326,525.549 414.5,526.5C 416.328,527.795 418.328,528.795 420.5,529.5C 419.465,531.128 419.465,532.795 420.5,534.5C 416.42,542.329 412.087,549.996 407.5,557.5C 406.957,557.56 406.624,557.893 406.5,558.5C 410.107,559.489 413.774,559.823 417.5,559.5C 421.982,560.326 426.649,560.826 431.5,561C 426.136,561.171 420.802,561.671 415.5,562.5C 423.493,563.333 431.493,563.5 439.5,563C 437.1,563.186 434.766,563.686 432.5,564.5C 434.76,564.233 437.093,564.733 439.5,566C 435.168,566.583 430.835,567.083 426.5,567.5C 426.739,569.467 426.406,571.301 425.5,573C 422.289,574.153 418.956,574.82 415.5,575C 430.163,575.5 444.83,575.667 459.5,575.5C 471.678,575.172 483.678,575.505 495.5,576.5C 459.833,576.5 424.167,576.5 388.5,576.5C 387.178,576.67 386.011,576.337 385,575.5C 383.16,573.319 381.993,570.819 381.5,568C 384.434,561.298 387.768,554.798 391.5,548.5C 392.043,548.44 392.376,548.107 392.5,547.5C 380.185,546.501 367.851,546.168 355.5,546.5C 349.962,544.43 347.796,540.43 349,534.5C 358.859,518.103 368.692,501.77 378.5,485.5C 379.94,484.637 381.274,484.637 382.5,485.5C 383.386,484.675 383.719,483.675 383.5,482.5C 384.833,482.5 386.167,482.5 387.5,482.5C 387.351,483.552 387.517,484.552 388,485.5C 389.621,483.507 391.287,481.507 393,479.5C 392.695,481.443 392.695,483.443 393,485.5C 393.434,481.777 394.268,481.61 395.5,485C 394.136,488.227 392.636,491.394 391,494.5C 390.667,493.5 390.333,492.5 390,491.5C 388.5,492.667 387,493.833 385.5,495C 386.167,495.333 386.833,495.667 387.5,496C 386.289,497.113 386.289,498.28 387.5,499.5C 386.123,501.289 385.123,503.289 384.5,505.5C 380.456,507.35 379.456,510.35 381.5,514.5 Z"/></g>
<g><path style="opacity:1" fill="#c7e9f0" d="M 374.5,527.5 C 382.833,528.167 391.167,528.833 399.5,529.5C 390.808,529.831 382.141,529.498 373.5,528.5C 373.624,527.893 373.957,527.56 374.5,527.5 Z"/></g>
<g><path style="opacity:1" fill="#a2d9f1" d="M 355.5,546.5 C 367.851,546.168 380.185,546.501 392.5,547.5C 392.376,548.107 392.043,548.44 391.5,548.5C 379.5,547.833 367.5,547.167 355.5,546.5 Z"/></g>
<g><path style="opacity:1" fill="#b2ecf4" d="M 627.5,546.5 C 628.167,546.5 628.833,546.5 629.5,546.5C 617.5,547.167 605.5,547.833 593.5,548.5C 592.957,548.44 592.624,548.107 592.5,547.5C 604.148,546.501 615.814,546.168 627.5,546.5 Z"/></g>
<g><path style="opacity:1" fill="#e1f5f8" d="M 407.5,557.5 C 462.5,558.167 517.5,558.833 572.5,559.5C 559.833,559.5 547.167,559.5 534.5,559.5C 522.5,559.5 510.5,559.5 498.5,559.5C 492.167,559.5 485.833,559.5 479.5,559.5C 458.833,559.5 438.167,559.5 417.5,559.5C 413.774,559.823 410.107,559.489 406.5,558.5C 406.624,557.893 406.957,557.56 407.5,557.5 Z"/></g>
<g><path style="opacity:1" fill="#3fbee7" d="M 417.5,559.5 C 438.167,559.5 458.833,559.5 479.5,559.5C 468.884,560.335 468.884,561.501 479.5,563C 468.833,564 468.833,565 479.5,566C 476.833,566.333 474.167,566.667 471.5,567C 472.833,567.667 472.833,568.333 471.5,569C 466.508,570.606 461.508,571.273 456.5,571C 456.043,571.414 455.709,571.914 455.5,572.5C 456.901,573.521 458.235,574.521 459.5,575.5C 444.83,575.667 430.163,575.5 415.5,575C 418.956,574.82 422.289,574.153 425.5,573C 426.406,571.301 426.739,569.467 426.5,567.5C 430.835,567.083 435.168,566.583 439.5,566C 437.093,564.733 434.76,564.233 432.5,564.5C 434.766,563.686 437.1,563.186 439.5,563C 431.493,563.5 423.493,563.333 415.5,562.5C 420.802,561.671 426.136,561.171 431.5,561C 426.649,560.826 421.982,560.326 417.5,559.5 Z"/></g>
<g><path style="opacity:1" fill="#46c5ec" d="M 479.5,559.5 C 485.833,559.5 492.167,559.5 498.5,559.5C 502.982,560.326 507.649,560.826 512.5,561C 506.659,561.047 500.992,561.714 495.5,563C 539.305,563.529 539.305,564.529 495.5,566C 506.167,566.333 516.833,566.667 527.5,567C 523.789,567.175 520.122,567.675 516.5,568.5C 517.5,570.833 516.833,571.5 514.5,570.5C 509.518,571.119 504.518,571.786 499.5,572.5C 503.786,575.006 507.952,575.006 512,572.5C 512.374,573.416 512.874,574.25 513.5,575C 515.708,575.191 517.708,575.691 519.5,576.5C 511.5,576.5 503.5,576.5 495.5,576.5C 483.678,575.505 471.678,575.172 459.5,575.5C 458.235,574.521 456.901,573.521 455.5,572.5C 455.709,571.914 456.043,571.414 456.5,571C 461.508,571.273 466.508,570.606 471.5,569C 472.833,568.333 472.833,567.667 471.5,567C 474.167,566.667 476.833,566.333 479.5,566C 468.833,565 468.833,564 479.5,563C 468.884,561.501 468.884,560.335 479.5,559.5 Z"/></g>
<g><path style="opacity:1" fill="#52cdef" d="M 498.5,559.5 C 510.5,559.5 522.5,559.5 534.5,559.5C 547.994,560.331 561.661,560.831 575.5,561C 570.47,561.448 565.47,562.114 560.5,563C 566.859,563.169 573.193,563.669 579.5,564.5C 580.908,565.243 582.241,566.077 583.5,567C 581.77,568.852 580.604,568.686 580,566.5C 579.612,567.428 578.945,568.095 578,568.5C 576.838,567.813 575.672,567.647 574.5,568C 576.781,569.482 576.781,571.149 574.5,573C 575.337,574.011 575.67,575.178 575.5,576.5C 556.833,576.5 538.167,576.5 519.5,576.5C 517.708,575.691 515.708,575.191 513.5,575C 512.874,574.25 512.374,573.416 512,572.5C 507.952,575.006 503.786,575.006 499.5,572.5C 504.518,571.786 509.518,571.119 514.5,570.5C 516.833,571.5 517.5,570.833 516.5,568.5C 520.122,567.675 523.789,567.175 527.5,567C 516.833,566.667 506.167,566.333 495.5,566C 539.305,564.529 539.305,563.529 495.5,563C 500.992,561.714 506.659,561.047 512.5,561C 507.649,560.826 502.982,560.326 498.5,559.5 Z"/></g>
<g><path style="opacity:1" fill="#f3f4f5" d="M 73.5,894.5 C 88.4014,893.362 98.568,899.695 104,913.5C 106.578,928.512 101.078,939.345 87.5,946C 77.2483,946.118 67.2483,947.118 57.5,949C 52.1068,946.895 49.4401,942.895 49.5,937C 49.3627,934.444 50.196,932.277 52,930.5C 49.7994,912.524 56.9661,900.524 73.5,894.5 Z"/></g>
<g><path style="opacity:1" fill="#fefefc" d="M 73.5,897.5 C 93.8623,897.22 103.029,907.22 101,927.5C 96.084,940.19 86.9173,945.523 73.5,943.5C 75.2162,929.713 69.3828,924.046 56,926.5C 53.6924,911.764 59.5258,902.097 73.5,897.5 Z"/></g>
<g><path style="opacity:1" fill="#fefefc" d="M 58.5,928.5 C 69.7908,928.27 73.2908,933.27 69,943.5C 62.3221,949.328 56.9888,948.328 53,940.5C 51.4963,934.87 53.3296,930.87 58.5,928.5 Z"/></g>
</svg>
